<?xml version="1.0" standalone="no"?>
<!DOCTYPE svg PUBLIC "-//W3C//DTD SVG 20010904//EN"
 "http://www.w3.org/TR/2001/REC-SVG-20010904/DTD/svg10.dtd">
<svg version="1.0" xmlns="http://www.w3.org/2000/svg"
 width="1040.000000pt" height="1040.000000pt" viewBox="0 0 1040.000000 1040.000000"
 preserveAspectRatio="xMidYMid meet">
<metadata>
Created by potrace 1.14, written by Peter Selinger 2001-2017
</metadata>
<g transform="translate(0.000000,1040.000000) scale(0.100000,-0.100000)"
fill="#000000" stroke="none">
<path d="M4380 8339 c-30 -10 -62 -22 -70 -26 -8 -3 -17 -7 -20 -8 -3 -1 -18
-7 -35 -14 -16 -6 -61 -23 -100 -38 -38 -14 -74 -30 -80 -34 -5 -5 -15 -9 -23
-9 -8 0 -28 -6 -45 -14 -54 -23 -168 -69 -177 -70 -6 -2 -164 -64 -205 -81
-16 -7 -88 -34 -160 -61 -71 -27 -133 -52 -136 -57 -3 -5 -10 -8 -15 -8 -11 2
-124 -39 -139 -49 -5 -4 -35 -15 -65 -25 -30 -10 -59 -21 -65 -25 -10 -6 -105
-44 -115 -45 -5 0 -192 -74 -255 -100 -16 -6 -46 -18 -65 -25 -39 -13 -69 -25
-102 -40 -52 -22 -144 -54 -150 -52 -5 1 -8 -2 -8 -6 0 -5 -19 -14 -42 -21
-24 -7 -56 -19 -73 -26 -100 -42 -169 -68 -181 -68 -8 0 -14 -4 -14 -9 0 -4
-5 -8 -11 -8 -24 0 -73 -46 -90 -86 -31 -69 -15 -140 48 -211 15 -17 35 -39
43 -50 50 -61 118 -141 135 -158 11 -11 38 -43 59 -70 22 -28 44 -54 50 -60 6
-5 31 -35 56 -65 24 -30 72 -87 105 -125 33 -39 80 -95 105 -125 25 -30 55
-65 68 -78 12 -13 29 -34 37 -46 15 -22 14 -24 -9 -40 -14 -9 -30 -16 -35 -16
-5 0 -11 -3 -13 -7 -4 -11 -85 -63 -96 -63 -5 0 -17 -9 -27 -20 -10 -11 -24
-20 -32 -20 -7 0 -13 -4 -13 -10 0 -5 -7 -10 -15 -10 -8 0 -15 -5 -15 -12 0
-6 -3 -9 -6 -5 -3 3 -28 -10 -56 -29 -27 -19 -60 -39 -74 -44 -13 -5 -24 -14
-24 -20 0 -5 -4 -10 -10 -10 -9 0 -86 -47 -285 -175 -44 -28 -120 -76 -168
-106 -48 -30 -113 -71 -145 -91 -31 -21 -64 -41 -72 -45 -8 -3 -17 -10 -20
-13 -3 -4 -27 -20 -55 -36 -65 -37 -110 -68 -127 -85 -53 -57 -60 -149 -18
-214 25 -36 105 -80 410 -222 41 -20 127 -60 190 -91 63 -30 160 -76 215 -102
111 -52 196 -93 425 -202 l154 -74 1 -267 c0 -173 -3 -267 -10 -267 -7 0 -7
-3 0 -8 9 -6 14 -497 5 -527 -1 -5 -1 -12 0 -15 1 -3 3 -77 4 -165 2 -127 6
-167 19 -192 29 -56 44 -64 415 -225 23 -10 62 -27 87 -38 70 -31 137 -61 170
-75 17 -8 55 -25 85 -38 167 -74 269 -117 279 -117 6 0 11 -4 11 -10 0 -5 5
-10 11 -10 9 0 48 -16 204 -85 17 -7 55 -24 85 -38 30 -13 89 -39 130 -57 41
-18 89 -38 105 -46 286 -127 422 -186 431 -188 7 -1 18 -7 25 -13 8 -6 25 -14
38 -18 14 -4 54 -21 90 -38 37 -16 75 -32 86 -34 11 -2 22 -8 23 -13 2 -6 10
-10 18 -10 7 0 29 -9 49 -20 19 -11 35 -17 35 -14 0 4 6 2 13 -3 35 -28 118
-2 407 125 19 9 37 16 40 17 3 0 31 13 64 28 32 15 61 27 63 27 3 0 19 6 36
14 87 39 148 66 151 66 2 0 30 12 62 27 33 15 61 27 64 28 9 3 43 17 85 35 22
10 90 39 150 65 61 26 124 53 140 60 17 7 179 77 360 155 182 77 344 147 360
154 17 8 75 33 130 56 104 43 136 57 195 83 19 9 66 29 103 45 38 16 77 36 88
46 11 9 24 16 29 16 6 0 10 6 10 14 0 8 6 21 13 28 6 7 14 20 16 28 2 8 5 331
5 718 l1 703 25 19 c14 11 28 20 32 20 7 0 67 28 285 131 56 27 107 49 111 49
5 0 15 7 22 15 6 8 15 14 18 13 4 -1 36 12 72 29 138 65 309 147 390 186 47
23 87 42 90 42 3 1 58 27 123 58 65 31 121 57 125 57 11 0 60 47 77 74 27 40
29 108 7 157 -19 41 -68 89 -91 89 -5 0 -11 3 -13 8 -3 6 -86 61 -194 127 -41
25 -276 174 -312 198 -15 9 -35 20 -44 23 -10 4 -18 10 -18 15 0 5 -5 9 -11 9
-6 0 -29 13 -52 28 -23 16 -60 40 -82 54 -22 14 -73 46 -113 72 -39 25 -83 52
-97 58 -14 6 -25 15 -25 20 0 4 -7 8 -15 8 -8 0 -15 5 -15 10 0 6 -4 10 -10
10 -9 0 -224 133 -244 150 -4 5 0 17 10 27 11 11 35 40 54 64 19 24 45 54 57
66 12 12 27 31 35 41 7 10 36 45 63 77 60 69 70 81 114 135 19 24 40 48 46 54
5 6 33 38 60 71 74 88 98 117 115 135 8 9 33 38 55 65 22 28 47 57 55 66 52
54 65 84 64 149 -1 39 -6 66 -13 68 -6 2 -11 9 -11 15 0 27 -52 60 -174 107
-72 29 -140 56 -151 60 -11 5 -51 21 -90 35 -38 15 -83 33 -100 40 -55 23
-192 75 -198 75 -4 0 -26 9 -50 19 -49 22 -183 75 -317 126 -52 19 -102 38
-110 42 -8 3 -17 7 -20 8 -3 1 -14 5 -25 10 -11 4 -83 32 -160 62 -77 30 -149
58 -160 63 -32 14 -309 122 -320 124 -5 2 -23 8 -40 15 -16 7 -88 35 -160 62
-155 60 -157 61 -217 88 -26 12 -52 21 -57 21 -5 0 -31 9 -58 21 -68 29 -137
32 -179 7 -19 -11 -61 -52 -95 -91 -34 -40 -82 -96 -108 -126 -25 -30 -59 -71
-76 -93 -16 -21 -33 -38 -37 -38 -4 0 -8 -7 -8 -15 0 -8 -3 -15 -7 -15 -5 0
-30 -28 -58 -61 -27 -34 -61 -74 -75 -90 -14 -15 -33 -38 -43 -51 -17 -22 -41
-50 -122 -143 l-35 -40 -28 30 c-15 17 -47 55 -72 85 -25 29 -74 88 -109 129
-34 42 -71 85 -80 96 -72 87 -192 230 -231 275 -27 30 -63 73 -82 96 -56 70
-125 87 -218 53z"/>
</g>
</svg>
